<svg xmlns="http://www.w3.org/2000/svg" width="298" height="243" viewBox="0 0 298 243">
  <path fill="#000000" d="M93.72,242.18 C206.18,242.18 267.68,149.012 267.68,68.22 C267.68,65.5737 267.6261,62.9394 267.5074,60.317 C279.4454,51.6868 289.8214,40.917 298.0054,28.657 C287.0504,33.5264 275.2614,36.8044 262.8944,38.2825 C275.5174,30.7132 285.2084,18.7395 289.7804,4.4655 C277.9674,11.4686 264.8854,16.5585 250.9564,19.3065 C239.7994,7.4225 223.9154,-0.0105 206.3274,-0.0105 C172.5634,-0.0105 145.1834,27.3705 145.1834,61.1215 C145.1834,65.9193 145.7198,70.5861 146.7688,75.0625 C95.9538,72.5056 50.8948,48.1765 20.7388,11.1825 C15.488,20.2179 12.4603,30.7135 12.4603,41.9125 C12.4603,63.1245 23.2543,81.8505 39.6683,92.8055 C29.6373,92.49558 20.2143,89.742 11.9783,85.1587 C11.9693,85.41522 11.9693,85.66531 11.9693,85.93947 C11.9693,115.54947 33.0443,140.27147 61.0203,145.87347 C55.8827,147.27407 50.4773,148.02507 44.8983,148.02507 C40.9647,148.02507 37.1323,147.63791 33.4073,146.92247 C41.1911,171.21547 63.7623,188.89347 90.5223,189.38747 C69.5963,205.78947 43.2353,215.55847 14.5853,215.55847 C9.6563,215.55847 4.787,215.27811 0.0013,214.71213 C27.0603,232.05613 59.1903,242.17613 93.7233,242.17613"/>
</svg>
